Coordinates
version=1
nRows=22
nColumns=24
inDegrees=yes

Units are S.I. units (second, meters, Newtons, ...)
Angles are in degrees.

endheader
time	pelvis_tilt	pelvis_list	pelvis_rotation	pelvis_tx	pelvis_ty	pelvis_tz	hip_flexion_r	hip_adduction_r	hip_rotation_r	knee_angle_r	ankle_angle_r	subtalar_angle_r	mtp_angle_r	hip_flexion_l	hip_adduction_l	hip_rotation_l	knee_angle_l	ankle_angle_l	subtalar_angle_l	mtp_angle_l	lumbar_extension	lumbar_bending	lumbar_rotation
      2.95500000	    -11.38156477	      7.70972514	     -3.23688048	     -2.27360716	     -0.03449426	     -0.25959858	     16.73647878	    -15.43132654	     -6.89331348	    -60.27003749	    -25.88420626	    -19.66207692	      2.11362082	     29.71917302	      6.54086604	     -4.66828690	    -25.44799090	      0.88628855	    -12.55810666	     -7.99570301	      6.53972423	     -8.42943713	      2.53713302
      2.96000000	    -11.30902239	      7.48041998	     -3.17712068	     -2.26663564	     -0.03285330	     -0.26029949	     17.53099005	    -15.04712796	     -6.85415857	    -60.92048197	    -24.91054430	    -19.82823135	      2.50928373	     28.96170355	      6.44488845	     -4.49443344	    -25.10402381	      1.24481381	    -12.37155487	     -7.89348844	      6.41241802	     -8.20449714	      2.34556399
      2.96500000	    -11.23980156	      7.28611736	     -3.12416486	     -2.25962686	     -0.03121514	     -0.26108790	     18.29135750	    -14.71454610	     -6.77639544	    -61.38331050	    -24.31300219	    -19.89814049	      5.40293604	     28.18318764	      6.40578485	     -4.25484379	    -24.70809113	      1.55599084	    -12.31355699	     -8.04042672	      6.30572684	     -7.99877691	      2.17930318
      2.97000000	    -11.18277304	      7.04888444	     -3.08591082	     -2.25266385	     -0.02960569	     -0.26175099	     19.07270306	    -14.31543085	     -6.74736836	    -61.83770521	    -23.17984468	    -19.53939077	      5.95378381	     27.42568437	      6.29095901	     -4.08276646	    -24.32363850	      1.88282640	    -12.17008647	     -7.99684391	      6.20899772	     -7.75306339	      2.01565881
      2.97500000	    -11.10894972	      6.82976618	     -3.02665612	     -2.24572413	     -0.02797527	     -0.26254332	     19.77813095	    -13.95641597	     -6.70417214	    -62.06904789	    -22.63370980	    -19.29692291	      9.59211834	     26.63589297	      6.23670433	     -3.79489404	    -23.90598937	      2.18155170	    -12.18176636	     -8.50200809	      6.09034992	     -7.51747278	      1.82728136
      2.98000000	    -11.06902559	      6.57368404	     -2.97340311	     -2.23882012	     -0.02643552	     -0.26316737	     20.53211203	    -13.53664124	     -6.72030913	    -62.33748962	    -21.40841398	    -18.55191789	     10.25791789	     25.89705461	      6.10090569	     -3.59407053	    -23.50821488	      2.46068280	    -12.06660271	     -8.48428146	      6.00817309	     -7.25461115	      1.66293123
      2.98500000	    -11.00287873	      6.35380904	     -2.89252293	     -2.23190406	     -0.02487729	     -0.26401228	     21.19462492	    -13.18736152	     -6.71467141	    -62.36001370	    -20.89857074	    -18.07628413	     14.44183683	     25.10242970	      6.05833730	     -3.26617850	    -23.05305523	      2.73060418	    -12.14929760	     -9.11860579	      5.90091706	     -7.00861416	      1.46242487
      2.99000000	    -10.96447202	      6.12916029	     -2.80558730	     -2.22502685	     -0.02341537	     -0.26473490	     21.88873205	    -12.82004253	     -6.75774521	    -62.37819543	    -20.01253708	    -17.36160166	     16.82609776	     24.34993181	      5.98203229	     -3.00794248	    -22.60860654	      2.99090414	    -12.14990698	     -9.50390046	      5.82205949	     -6.77525545	      1.26591136
      2.99500000	    -10.93363235	      5.90879819	     -2.73443697	     -2.21819737	     -0.02203580	     -0.26537255	     22.60189596	    -12.43937323	     -6.79853814	    -62.40127415	    -18.77865836	    -16.34909680	     17.65035932	     23.60530293	      5.88500442	     -2.77973729	    -22.15243578	      3.21072131	    -12.09706819	     -9.53811247	      5.75143152	     -6.54526143	      1.09878094
      3.00000000	    -10.86652754	      5.75156290	     -2.66341203	     -2.21127102	     -0.02063095	     -0.26614539	     23.23669104	    -12.15003868	     -6.82833840	    -62.27271250	    -17.78126497	    -15.42749358	     19.78014499	     22.78072267	      5.88611211	     -2.54643587	    -21.59652360	      3.26837080	    -12.35109118	     -9.88490343	      5.66531999	     -6.36554423	      0.95765836
      3.00500000	    -10.82338778	      5.52937515	     -2.53951550	     -2.20444196	     -0.01933894	     -0.26689661	     23.84654097	    -11.78906203	     -6.92063266	    -62.02767356	    -16.90160792	    -14.65995501	     22.41708598	     22.02583057	      5.80541557	     -2.33196352	    -21.13418683	      3.52494408	    -12.31882415	    -10.25058068	      5.57981340	     -6.13143996	      0.75538901
      3.01000000	    -10.83979177	      5.23581188	     -2.31373566	     -2.19763713	     -0.01819816	     -0.26764621	     24.47774198	    -11.38198652	     -7.20535661	    -61.76246615	    -15.86333103	    -13.97274764	     23.18944045	     21.36709864	      5.64774989	     -2.10231407	    -20.73378934	      3.87355674	    -12.05380102	    -10.23233469	      5.54231550	     -5.85026932	      0.45312438
      3.01500000	    -10.79045406	      5.01536333	     -2.15650722	     -2.19084933	     -0.01699453	     -0.26846731	     25.02181410	    -11.03194820	     -7.33026105	    -61.28710396	    -15.33420103	    -13.58052548	     26.94742759	     20.59669224	      5.58011592	     -1.82150384	    -20.24004254	      4.09527113	    -12.08163635	    -10.79837744	      5.44354468	     -5.61827277	      0.20786148
      3.02000000	    -10.78541421	      4.80844128	     -2.00387453	     -2.18404326	     -0.01598466	     -0.26915679	     25.63727210	    -10.68392155	     -7.49716960	    -60.91630145	    -14.23282561	    -12.85002880	     27.39624114	     19.89505354	      5.48330839	     -1.70320676	    -19.77021728	      4.31755525	    -11.96019235	    -10.78149741	      5.40272229	     -5.41081777	      0.00532906
      3.02500000	    -10.76291230	      4.60188272	     -1.83448471	     -2.17727156	     -0.01500901	     -0.26985811	     26.20796843	    -10.33918715	     -7.67109732	    -60.46051138	    -13.21692492	    -12.21321707	     27.89957783	     19.17295738	      5.39475478	     -1.52436530	    -19.28772906	      4.47752139	    -11.90623393	    -10.79064015	      5.33651527	     -5.20747179	     -0.23796068
      3.03000000	    -10.65341628	      4.46146553	     -1.68619556	     -2.17044004	     -0.01402810	     -0.27067610	     26.66461943	    -10.08551151	     -7.82058487	    -59.89630002	    -12.39012655	    -11.75510363	     29.23450093	     18.31762636	      5.40030879	     -1.27338672	    -18.72855677	      4.54737976	    -12.07640401	    -10.97494186	      5.18902700	     -5.05281639	     -0.40058259
      3.03500000	    -10.69382823	      4.24222752	     -1.46640425	     -2.16368760	     -0.01332658	     -0.27141068	     27.25908260	     -9.75337221	     -8.06778675	    -59.30898462	    -11.54447291	    -11.37910606	     29.63013107	     17.70631306	      5.28747944	     -1.12354551	    -18.32292441	      4.82079031	    -11.87392714	    -10.93983638	      5.18481819	     -4.84000000	     -0.66008161
      3.04000000	    -10.64208757	      4.08128326	     -1.29510227	     -2.15692191	     -0.01259099	     -0.27213307	     27.75147414	     -9.47196113	     -8.24083387	    -58.65274477	    -10.79889045	    -11.04736668	     30.14471839	     16.95337293	      5.24262566	     -0.88198726	    -17.83655307	      4.97309133	    -11.87440309	    -10.99984984	      5.08860627	     -4.67794983	     -0.86302342
      3.04500000	    -10.64763512	      3.89451567	     -1.11164223	     -2.15017481	     -0.01198982	     -0.27283565	     28.28562287	     -9.16678493	     -8.44106264	    -57.93523372	    -10.14944719	    -10.81160384	     30.41723987	     16.29610336	      5.15649905	     -0.73385957	    -17.39959994	      5.13509026	    -11.84374067	    -11.02658011	      5.05030507	     -4.48801111	     -1.09742413
      3.05000000	    -10.62139713	      3.73586861	     -0.93561399	     -2.14343128	     -0.01144685	     -0.27353676	     28.77395509	     -8.90056581	     -8.63620467	    -57.16299872	     -9.58701817	    -10.63399865	     30.64941240	     15.59654726	      5.09966816	     -0.54759822	    -16.94902364	      5.28554374	    -11.84766312	    -11.07456399	      4.97970651	     -4.32404329	     -1.29521790
      3.05500000	    -10.60307221	      3.59012844	     -0.77208684	     -2.13669247	     -0.01099268	     -0.27419596	     29.26144308	     -8.64565769	     -8.81618524	    -56.33854712	     -9.13075803	    -10.51923348	     30.81943494	     14.90785467	      5.04544742	     -0.37455223	    -16.50186787	      5.43909075	    -11.84603602	    -11.12987807	      4.91670950	     -4.17496168	     -1.48123861
      3.06000000	    -10.56975751	      3.46099608	     -0.60537088	     -2.12997757	     -0.01062010	     -0.27484287	     29.71753433	     -8.42017141	     -9.00461467	    -55.46294808	     -8.73271216	    -10.44678857	     30.96182224	     14.21089587	      5.00418220	     -0.21043085	    -16.06732180	      5.61229731	    -11.83102060	    -11.20022553	      4.83393671	     -4.04325365	     -1.65610181
